# xmcd
#
# Track frame offsets:
#	150
#	12932
#	27710
#	43420
#	56850
#	70290
#	86687
#	101500
#	117250
#	134837
#	148912
#	162422
#	174365
#	188450
#
# Disc length: 2717 seconds
#
# Revision: 0
# Processed by: cddbd v1.5.1PL0 Copyright (c) Steve Scherf et al.
# Submitted via: dBpowerAMP V4.0
#
DISCID=d20a9b0e
DTITLE=Kjell Fredriksson - Precis Som Den Jag Är
DYEAR=1900
DGENRE=Country
TTITLE0=Precis Som Den Jag Är
TTITLE1=Utanför Dörren Får Du Stå
TTITLE2=Ensamma Hjärtan
TTITLE3=Härlig Söndag
TTITLE4=1 Enda Rad
TTITLE5=Man Får Skörda Det Man Sår
TTITLE6=Alltid Har Jag Hittat Hem
TTITLE7=Farfars Gamla Handklaver
TTITLE8=Marianne
TTITLE9=Längtan Till Luffarlivert
TTITLE10=Med 2:a Mål I Livet
TTITLE11=Grabben Med Ett Glatt Humör
TTITLE12=Honky Tonk Baby
TTITLE13=Kärlek Per Annons
EXTD=
EXTT0=
EXTT1=
EXTT2=
EXTT3=
EXTT4=
EXTT5=
EXTT6=
EXTT7=
EXTT8=
EXTT9=
EXTT10=
EXTT11=
EXTT12=
EXTT13=
PLAYORDER=
